# xmcd CD database file
#
# Track frame offsets:
#	150
#	24897
#	45257
#	67485
#	89345
#	112517
#	139032
#	164536
#	184043
#	208343
#	228893
#	252068
#	276668
#	307193
#
# Disc length: 4633 seconds
#
# Revision: 0
# Processed by: cddbd v1.5.2PL0 Copyright (c) Steve Scherf et al.
# Submitted via: CDex 1.51
#
DISCID=c312170e
DTITLE=Duke Pearson - The Classic Album Collection - cd 1
DYEAR=2018
DGENRE=Jazz
TTITLE0=I Like Someone in Love
TTITLE1=Black Coffee
TTITLE2=Taboo
TTITLE3=I'm GladThere is You
TTITLE4=Gate City Blues
TTITLE5=Two Miles Run
TTITLE6=Witchcraft
TTITLE7=Bluebird of Happiness
TTITLE8=I'm a Fool to want You
TTITLE9=I Love You
TTITLE10=When Sunny gets Blue
TTITLE11=The Golden Striker
TTITLE12=On Green Dolphin
TTITLE13=3 A.M.
EXTD=YEAR: 2018
EXTT0=
EXTT1=
EXTT2=
EXTT3=
EXTT4=
EXTT5=
EXTT6=
EXTT7=
EXTT8=
EXTT9=
EXTT10=
EXTT11=
EXTT12=
EXTT13=
PLAYORDER=
